<svg width="130" height="19" viewBox="0 0 130 19" fill="none" xmlns="http://www.w3.org/2000/svg">
<path d="M0.222188 18H6.24619C12.3422 18 17.4782 13.56 17.4782 8.256C17.4782 4.32 14.1422 1.512 9.46219 1.512H3.65419L0.222188 18ZM4.42219 14.784L6.53419 4.728H9.46219C12.0302 4.728 13.8542 6.264 13.8542 8.424C13.8542 11.88 10.7822 14.784 7.15819 14.784H4.42219ZM23.112 3.888C24.144 3.888 25.128 2.904 25.128 1.824C25.128 0.863999 24.432 0.0719991 23.424 0.0719991C22.344 0.0719991 21.336 1.008 21.336 2.136C21.336 3.096 22.056 3.888 23.112 3.888ZM18.216 18H21.72L24.312 5.592H20.808L18.216 18ZM29.5791 18.288C32.9151 18.288 35.2911 16.392 35.2911 13.8C35.2911 11.616 33.5871 11.088 31.2831 10.416C29.7471 9.96 29.4351 9.696 29.4351 9.336C29.4351 8.688 30.3711 8.232 31.5231 8.232C32.6031 8.232 33.6591 8.616 34.5711 9.312L36.3471 6.912C35.0511 5.976 33.4671 5.304 31.5951 5.304C28.4271 5.304 26.0511 7.2 26.0511 9.768C26.0511 11.904 27.7071 12.384 30.1551 13.056C31.7391 13.488 31.9311 13.848 31.9311 14.184C31.9311 14.88 31.0191 15.384 29.6751 15.384C28.4991 15.384 27.0831 15 26.0271 14.112L24.1791 16.344C25.4751 17.52 27.4671 18.288 29.5791 18.288ZM45.7054 8.424L46.2814 5.592H43.5934L44.3134 2.184H40.9534L40.2334 5.592H38.5294L37.9294 8.424H39.6334C38.4334 14.088 38.3134 14.592 38.3134 15.216C38.3134 17.016 39.5854 18.288 41.4814 18.288C42.5134 18.288 43.6174 17.928 44.4574 17.304L43.9534 14.808C43.6894 15.072 43.0894 15.336 42.5374 15.336C42.0814 15.336 41.7934 15.072 41.7934 14.52C41.7934 14.232 41.8174 14.112 43.0174 8.424H45.7054ZM52.1462 7.728L52.5782 5.592H49.0742L46.4822 18H49.9862L51.2582 11.928C51.8342 9.768 53.8742 8.256 56.3702 8.256L56.7542 5.304C54.8822 5.304 53.2262 6.216 52.1462 7.728ZM61.737 3.888C62.769 3.888 63.753 2.904 63.753 1.824C63.753 0.863999 63.057 0.0719991 62.049 0.0719991C60.969 0.0719991 59.961 1.008 59.961 2.136C59.961 3.096 60.681 3.888 61.737 3.888ZM56.841 18H60.345L62.937 5.592H59.433L56.841 18ZM73.5321 5.304C71.8521 5.304 70.3401 6.024 69.1641 7.2L70.4121 1.224H66.9081L63.4281 18H66.9321L67.3401 16.008C68.0841 17.4 69.4761 18.288 71.1801 18.288C75.1641 18.288 78.2361 14.52 78.2361 10.32C78.2361 7.44 76.2921 5.304 73.5321 5.304ZM70.5561 15.336C69.1161 15.336 68.0601 14.328 68.0601 12.936C68.0601 12.768 68.0601 12.6 68.0841 12.408L68.2521 11.592C68.8281 9.744 70.4841 8.256 72.4041 8.256C73.8201 8.256 74.8281 9.288 74.8281 10.68C74.8281 13.128 72.8841 15.336 70.5561 15.336ZM90.0947 5.592L88.5827 12.816V12.792C88.3187 14.136 86.8307 15.336 85.2467 15.336C84.2147 15.336 83.5667 14.712 83.5667 13.632C83.5667 13.104 83.6627 12.72 85.1747 5.592H81.7907C80.2547 12.96 80.0627 13.584 80.0627 14.496C80.0627 16.728 81.5507 18.288 83.9747 18.288C85.4387 18.288 86.8547 17.664 87.7907 16.656L87.5027 18H91.0067L93.5987 5.592H90.0947ZM102.869 8.424L103.445 5.592H100.757L101.477 2.184H98.1174L97.3974 5.592H95.6934L95.0934 8.424H96.7974C95.5974 14.088 95.4774 14.592 95.4774 15.216C95.4774 17.016 96.7494 18.288 98.6454 18.288C99.6774 18.288 100.781 17.928 101.621 17.304L101.117 14.808C100.853 15.072 100.253 15.336 99.7014 15.336C99.2454 15.336 98.9574 15.072 98.9574 14.52C98.9574 14.232 98.9814 14.112 100.181 8.424H102.869ZM109.838 18.288C113.942 18.288 117.854 14.88 117.854 10.776C117.854 7.752 115.406 5.304 112.19 5.304C108.086 5.304 104.198 8.688 104.198 12.816C104.198 15.84 106.622 18.288 109.838 18.288ZM110.102 15.336C108.638 15.336 107.486 14.184 107.486 12.72C107.486 10.416 109.598 8.256 111.926 8.256C113.414 8.256 114.566 9.408 114.566 10.872C114.566 13.152 112.43 15.336 110.102 15.336ZM124.521 7.728L124.953 5.592H121.449L118.857 18H122.361L123.633 11.928C124.209 9.768 126.249 8.256 128.745 8.256L129.129 5.304C127.257 5.304 125.601 6.216 124.521 7.728Z" fill="white"/>
</svg>
