<svg width="12" height="14" viewBox="0 0 12 14" fill="none" xmlns="http://www.w3.org/2000/svg">
<path fill-rule="evenodd" clip-rule="evenodd" d="M9.68173 3.93071V4.95294C10.83 5.31135 11.6666 6.3508 11.6666 7.59231V10.8836C11.6666 12.4206 10.3923 13.6667 8.8214 13.6667H3.17912C1.60749 13.6667 0.333252 12.4206 0.333252 10.8836V7.59231C0.333252 6.3508 1.17055 5.31135 2.31811 4.95294V3.93071C2.32488 1.94323 3.97103 0.333374 5.98976 0.333374C8.03558 0.333374 9.68173 1.94323 9.68173 3.93071ZM6.00331 1.49274C7.37848 1.49274 8.49623 2.58585 8.49623 3.93071V4.80918H3.5036V3.91746C3.51038 2.57922 4.62813 1.49274 6.00331 1.49274ZM6.59267 9.97C6.59267 10.2946 6.32847 10.553 5.99653 10.553C5.67137 10.553 5.40717 10.2946 5.40717 9.97V8.49926C5.40717 8.18127 5.67137 7.92289 5.99653 7.92289C6.32847 7.92289 6.59267 8.18127 6.59267 8.49926V9.97Z" fill="#232F34"/>
</svg>
