<svg width="16" height="16" viewBox="0 0 16 16" fill="none" xmlns="http://www.w3.org/2000/svg">
    <path fill-rule="evenodd" clip-rule="evenodd" d="M13.0027 1.3849C13.4593 1.25205 13.954 1.38021 14.2894 1.72173C14.6247 2.06257 14.7487 2.55976 14.612 3.02003L13.7793 5.8213C13.7 6.08767 13.4227 6.23863 13.1573 6.15946C12.8926 6.07962 12.742 5.79915 12.8213 5.53345L13.654 2.73152C13.7007 2.57452 13.6173 2.4685 13.5793 2.43026C13.5413 2.39134 13.4347 2.3068 13.2807 2.35176L2.55296 5.47105C2.38228 5.52071 2.34495 5.66362 2.33695 5.72266C2.32961 5.78171 2.32695 5.92932 2.47895 6.02326L4.73636 7.41214C4.97171 7.55707 5.04638 7.86706 4.9017 8.10458C4.8077 8.2589 4.64369 8.34478 4.47502 8.34478C4.38635 8.34478 4.29635 8.3213 4.21501 8.27097L1.9576 6.88141C1.51025 6.60632 1.27558 6.11115 1.34558 5.58847C1.41558 5.06512 1.77226 4.6498 2.27561 4.50353L13.0027 1.3849ZM12.0183 8.2329C12.0983 7.96586 12.3763 7.81422 12.641 7.89474C12.9057 7.97458 13.0563 8.25504 12.977 8.52142L11.429 13.7308C11.2789 14.2346 10.8643 14.5889 10.3463 14.6553C10.2882 14.6634 10.2309 14.6667 10.1736 14.6667C9.72156 14.6667 9.30821 14.4346 9.06754 14.036L6.33411 9.50974C6.21477 9.31114 6.24477 9.05617 6.40811 8.89246L10.2889 4.98679C10.4843 4.7902 10.8003 4.7902 10.9956 4.98679C11.1909 5.18339 11.1909 5.50209 10.9956 5.69868L7.39281 9.32523L9.92224 13.5134C10.0142 13.6657 10.1589 13.6643 10.2189 13.6576C10.2776 13.6496 10.4196 13.6133 10.4703 13.4429L12.0183 8.2329Z" fill="white" />
</svg>