<svg width="16" height="16" viewBox="0 0 16 16" fill="none" xmlns="http://www.w3.org/2000/svg">
<path fill-rule="evenodd" clip-rule="evenodd" d="M14.6668 7.21459C14.6668 7.49259 14.4408 7.71859 14.1628 7.71859H14.1568V7.70659C13.8755 7.70659 13.6475 7.47925 13.6468 7.19792V7.19659V5.50192C13.6468 3.46659 12.5335 2.35325 10.5042 2.35325H5.50416C3.4735 2.35325 2.3535 3.47325 2.3535 5.50192V10.5019C2.3535 12.5246 3.4735 13.6446 5.50216 13.6446H10.5022C12.5308 13.6446 13.6448 12.5246 13.6448 10.5019C13.6448 10.2206 13.8728 9.99192 14.1548 9.99192C14.4368 9.99192 14.6648 10.2206 14.6648 10.5019C14.6668 13.0719 13.0722 14.6666 10.5042 14.6666H5.50216C2.92816 14.6666 1.3335 13.0719 1.3335 10.5039V5.50392C1.3335 2.92792 2.92816 1.33325 5.50216 1.33325H10.5022C13.0602 1.33325 14.6668 2.92792 14.6668 5.50192V7.21459ZM7.20871 8.87552L10.0194 6.06418C10.2147 5.86885 10.5314 5.86885 10.7267 6.06418C10.922 6.25952 10.922 6.57618 10.7267 6.77152L7.56204 9.93618C7.46804 10.0295 7.34071 10.0822 7.20871 10.0822C7.07538 10.0822 6.94871 10.0295 6.85471 9.93618L5.27271 8.35352C5.07738 8.15818 5.07738 7.84152 5.27271 7.64618C5.46804 7.45085 5.78471 7.45085 5.98004 7.64618L7.20871 8.87552Z" fill="white"/>
</svg>
